<?xml version="1.0" standalone="no"?>
<!DOCTYPE svg PUBLIC "-//W3C//DTD SVG 20010904//EN"
 "http://www.w3.org/TR/2001/REC-SVG-20010904/DTD/svg10.dtd">
<svg version="1.0" xmlns="http://www.w3.org/2000/svg"
 width="72.000000pt" height="72.000000pt" viewBox="0 0 72.000000 72.000000"
 preserveAspectRatio="xMidYMid meet">
<metadata>
Created by potrace 1.11, written by Peter Selinger 2001-2013
</metadata>
<g transform="translate(0.000000,72.000000) scale(0.100000,-0.100000)"
fill="#000000" stroke="none">
<path d="M0 360 l0 -360 360 0 360 0 0 360 0 360 -360 0 -360 0 0 -360z m680
110 c0 -133 -4 -210 -10 -210 -10 0 -14 136 -10 318 l1 82 -145 0 -146 0 0
-27 c0 -19 -3 -24 -9 -15 -7 11 -17 10 -52 -8 -43 -21 -43 -21 -19 -1 14 12
35 24 48 27 12 3 22 11 22 16 0 11 -53 6 -84 -7 -14 -6 -17 -5 -12 3 5 9 -20
12 -98 12 l-105 0 -3 -192 c-2 -106 -2 -195 0 -197 1 -3 16 12 33 32 41 50 99
78 173 85 57 5 60 4 44 -11 -9 -10 -20 -26 -23 -37 -4 -11 -15 -20 -26 -20
-40 0 -109 -54 -109 -86 0 -18 10 -18 40 3 23 15 24 16 12 0 -8 -9 -22 -19
-33 -22 -27 -9 -24 -17 18 -44 33 -21 40 -22 72 -11 44 15 131 69 131 81 0 11
-30 0 -52 -18 -15 -13 -16 -13 -11 6 3 12 25 35 49 52 l44 30 0 -51 c0 -55
-31 -117 -52 -104 -6 4 -8 2 -4 -4 3 -6 -9 -22 -27 -36 -59 -45 -234 -49 -258
-5 -12 23 -29 119 -20 116 12 -3 61 36 61 49 0 22 -17 16 -38 -13 -11 -16 -24
-24 -29 -20 -4 5 -10 105 -11 223 l-4 214 321 0 321 0 0 -210z m-349 63 c-18
-15 -21 -24 -15 -46 6 -25 10 -28 33 -22 14 3 34 15 43 26 15 17 18 18 32 3 9
-8 16 -20 16 -25 0 -5 7 -9 17 -9 9 0 0 -12 -24 -29 -40 -29 -43 -29 -136 -24
-89 5 -98 4 -141 -20 -25 -14 -46 -21 -46 -16 0 5 4 9 10 9 5 0 6 8 3 17 -5
13 -2 15 12 10 15 -6 16 -5 5 8 -11 13 -11 18 0 28 10 10 12 9 7 -5 -7 -20 -6
-21 17 -12 22 8 20 21 -3 29 -13 4 -17 12 -14 26 4 15 8 17 14 8 4 -7 5 -17 3
-21 -11 -17 9 -7 27 15 l19 22 -9 -26 c-12 -34 -7 -39 40 -39 47 0 59 16 59
76 0 14 4 23 9 20 5 -3 14 1 21 9 7 9 15 13 18 10 3 -2 -5 -13 -17 -22z m76
-5 c-3 -8 -6 -5 -6 6 -1 11 2 17 5 13 3 -3 4 -12 1 -19z m-27 -12 c0 -15 -29
-30 -39 -20 -3 3 3 12 13 20 24 17 26 17 26 0z m-110 -46 c0 -5 -9 -10 -20
-10 -11 0 -20 5 -20 10 0 6 9 10 20 10 11 0 20 -4 20 -10z m210 -35 c0 -2 -35
-28 -77 -56 -43 -28 -89 -62 -103 -74 -14 -12 -38 -30 -55 -40 -24 -15 -28
-15 -17 -2 8 9 22 19 33 22 10 3 30 28 45 55 24 44 29 48 55 43 20 -4 38 3 71
25 46 33 48 34 48 27z m-151 -138 c-13 -13 -37 -32 -54 -41 -25 -15 -27 -15
-8 -1 12 9 34 28 48 41 33 31 45 31 14 1z m61 19 c0 -2 -8 -10 -17 -17 -16
-13 -17 -12 -4 4 13 16 21 21 21 13z m83 -16 c-3 -12 -8 -19 -11 -16 -5 6 5
36 12 36 2 0 2 -9 -1 -20z m-123 -14 c0 -2 -8 -10 -17 -17 -16 -13 -17 -12 -4
4 13 16 21 21 21 13z m-58 -48 c-6 -7 -25 -22 -44 -32 -39 -23 -32 -13 14 20
38 26 45 29 30 12z m-52 -2 c0 -2 -12 -11 -27 -20 l-28 -17 24 20 c23 21 31
25 31 17z m138 -125 c-13 -16 -34 -34 -48 -41 -17 -7 -10 2 20 29 54 48 59 50
28 12z"/>
<path d="M220 361 c0 -5 -8 -11 -17 -13 -17 -3 -17 -4 -1 -10 19 -8 45 16 28
27 -5 3 -10 2 -10 -4z"/>
<path d="M165 320 c-3 -5 -12 -7 -19 -4 -8 3 -17 1 -21 -5 -3 -6 0 -11 7 -12
7 0 21 -2 30 -4 12 -2 15 2 11 13 -5 12 -2 14 11 9 10 -4 15 -3 11 3 -8 13
-22 13 -30 0z"/>
<path d="M126 251 c-4 -7 -5 -15 -2 -18 9 -9 19 4 14 18 -4 11 -6 11 -12 0z"/>
<path d="M96 203 c-5 -12 6 -28 36 -54 24 -21 46 -38 49 -39 8 0 33 30 28 33
-2 2 -25 19 -51 40 -53 43 -54 43 -62 20z"/>
<path d="M370 189 c0 -5 5 -7 10 -4 6 3 10 8 10 11 0 2 -4 4 -10 4 -5 0 -10
-5 -10 -11z"/>
<path d="M250 134 c-35 -25 -49 -44 -33 -44 5 0 19 7 31 16 12 8 28 12 35 8 6
-4 9 -3 4 1 -4 5 0 17 10 27 24 27 -4 22 -47 -8z"/>
</g>
</svg>
